<svg width="14" height="15" viewBox="0 0 14 15" fill="none" xmlns="http://www.w3.org/2000/svg">
<g clip-path="url(#clip0)">
<path d="M12.7695 2.41577H1.23041C1.041 2.41577 0.863673 2.46251 0.703247 2.53955L6.97259 8.83202L8.37776 7.47661C8.37776 7.47661 8.37787 7.47647 8.3779 7.47642C8.37793 7.47636 8.37804 7.47631 8.37804 7.47631L13.2968 2.53966C13.1364 2.46256 12.9589 2.41577 12.7695 2.41577Z" fill="#A6A3A3"/>
<path d="M13.8769 3.12183L9.24805 7.76748L13.8767 12.4132C13.9535 12.2522 14 12.0742 14 11.8841V3.65074C14 3.46074 13.9536 3.28279 13.8769 3.12183Z" fill="#A6A3A3"/>
<path d="M0.12332 3.12183C0.0465664 3.28284 0 3.46082 0 3.65093V11.8843C0 12.0743 0.0465117 12.2523 0.123211 12.4133L4.75204 7.76762L0.12332 3.12183Z" fill="#A6A3A3"/>
<path d="M8.66803 8.34966L7.26267 9.70524C7.18255 9.78565 7.07761 9.82585 6.97269 9.82585C6.86777 9.82585 6.7628 9.78565 6.68271 9.70524L5.33204 8.34961L0.703125 12.9953C0.863578 13.0724 1.04101 13.1192 1.23048 13.1192H12.7695C12.9589 13.1192 13.1363 13.0724 13.2967 12.9954L8.66803 8.34966Z" fill="#A6A3A3"/>
</g>
<defs>
<clipPath id="clip0">
<rect y="0.741699" width="14" height="14.0516" fill="white"/>
</clipPath>
</defs>
</svg>
