<svg width="15" height="15" viewBox="0 0 15 15" fill="none" xmlns="http://www.w3.org/2000/svg">
<path d="M12.8581 1.44192C11.0989 -0.323758 8.23664 -0.32373 6.47745 1.44195C5.27582 2.648 4.85845 4.42535 5.37875 6.03786L0.297666 11.1377C0.220748 11.2149 0.17749 11.3194 0.17749 11.4288V13.7577C0.17749 13.9852 0.36094 14.1694 0.587647 14.1694H2.90799C3.01693 14.1694 3.12108 14.1259 3.19797 14.0487L3.77796 13.4662C3.86647 13.3774 3.90973 13.2527 3.89532 13.1277L3.82321 12.5021L4.68678 12.4205C4.88306 12.402 5.03807 12.2464 5.0565 12.0494L5.13782 11.1827L5.76107 11.2554C5.87681 11.2711 5.99338 11.2321 6.0811 11.1541C6.16841 11.0758 6.21847 10.964 6.21847 10.8466V10.0801H6.9683C7.07723 10.0801 7.18139 10.0367 7.25828 9.95948L8.31011 8.91774C9.91629 9.44036 11.6565 9.05301 12.8581 7.84613C14.6173 6.08048 14.6173 3.2076 12.8581 1.44192ZM11.6978 4.35298C11.2179 4.8346 10.4377 4.8346 9.95779 4.35298C9.47794 3.87135 9.47794 3.08822 9.95779 2.60659C10.4377 2.12496 11.2179 2.12496 11.6978 2.60659C12.1776 3.08822 12.1776 3.87135 11.6978 4.35298Z" fill="#A6A3A3"/>
</svg>
