<svg width="14" height="14" viewBox="0 0 14 14" fill="none" xmlns="http://www.w3.org/2000/svg">
<g clip-path="url(#clip0)">
<path d="M6.90024 6.74384C7.82672 6.74384 8.62898 6.41155 9.28448 5.75594C9.93999 5.10044 10.2723 4.2984 10.2723 3.37181C10.2723 2.44555 9.93999 1.6434 9.28438 0.987682C8.62877 0.332289 7.82661 0 6.90024 0C5.97365 0 5.1716 0.332289 4.5161 0.987789C3.8606 1.64329 3.5282 2.44544 3.5282 3.37181C3.5282 4.2984 3.8606 5.10055 4.5162 5.75605C5.17181 6.41144 5.97397 6.74384 6.90024 6.74384Z" fill="#A6A3A3"/>
<path d="M12.8004 10.7652C12.7815 10.4924 12.7433 10.1948 12.687 9.88059C12.6301 9.564 12.557 9.26471 12.4694 8.99117C12.3789 8.70844 12.2559 8.42924 12.1038 8.16168C11.9459 7.88397 11.7605 7.64215 11.5524 7.44316C11.3348 7.23498 11.0685 7.06761 10.7604 6.94553C10.4534 6.82408 10.1132 6.76256 9.74933 6.76256C9.60641 6.76256 9.4682 6.8212 9.20128 6.99498C9.037 7.10211 8.84485 7.22601 8.63037 7.36305C8.44698 7.4799 8.19853 7.58938 7.89166 7.6885C7.59227 7.78538 7.28828 7.83451 6.98825 7.83451C6.68822 7.83451 6.38434 7.78538 6.08463 7.6885C5.77808 7.58949 5.52963 7.48001 5.34645 7.36316C5.134 7.2274 4.94174 7.1035 4.77501 6.99487C4.50841 6.82109 4.37009 6.76245 4.22717 6.76245C3.86316 6.76245 3.52307 6.82408 3.2162 6.94563C2.90837 7.0675 2.64188 7.23488 2.42409 7.44327C2.21613 7.64236 2.03059 7.88407 1.87294 8.16168C1.72095 8.42924 1.5979 8.70834 1.50732 8.99128C1.41985 9.26482 1.34668 9.564 1.28986 9.88059C1.23357 10.1944 1.19533 10.4921 1.17642 10.7655C1.15784 11.0334 1.14844 11.3114 1.14844 11.5922C1.14844 12.323 1.38075 12.9147 1.83887 13.351C2.29132 13.7815 2.89 14 3.61803 14H10.3591C11.0871 14 11.6856 13.7816 12.1382 13.351C12.5964 12.915 12.8287 12.3232 12.8287 11.5921C12.8286 11.31 12.8191 11.0318 12.8004 10.7652Z" fill="#A6A3A3"/>
</g>
<defs>
<clipPath id="clip0">
<rect width="14" height="14" fill="white"/>
</clipPath>
</defs>
</svg>
